<svg width="60" height="60" viewBox="0 0 60 60" fill="none" xmlns="http://www.w3.org/2000/svg">
<g clip-path="url(#clip0)">
<rect x="-1" y="-7" width="60" height="60" fill="white"/>
<path d="M2.43295 24.3244C2.26346 24.3244 2.09822 24.2713 1.96047 24.1725C1.82272 24.0738 1.71938 23.9343 1.66497 23.7738C1.61057 23.6133 1.60784 23.4397 1.65717 23.2776C1.70649 23.1154 1.8054 22.9728 1.93997 22.8698L10.8589 16.05C11.0301 15.924 11.2438 15.8703 11.4542 15.9004C11.6646 15.9304 11.8548 16.0419 11.9838 16.2108C12.1128 16.3797 12.1704 16.5924 12.1441 16.8033C12.1178 17.0142 12.0098 17.2064 11.8432 17.3384L2.9243 24.1573C2.7835 24.2658 2.6107 24.3246 2.43295 24.3244Z" fill="#333333"/>
<path d="M57.5675 58.3706H43.9783C43.7633 58.3706 43.557 58.2851 43.405 58.1331C43.2529 57.981 43.1675 57.7748 43.1675 57.5598C43.1675 57.3447 43.2529 57.1385 43.405 56.9864C43.557 56.8344 43.7633 56.7489 43.9783 56.7489H56.7567V23.5138C56.7567 23.2988 56.8421 23.0925 56.9942 22.9405C57.1462 22.7884 57.3525 22.703 57.5675 22.703C57.7825 22.703 57.9888 22.7884 58.1408 22.9405C58.2929 23.0925 58.3783 23.2988 58.3783 23.5138V57.5598C58.3783 57.7748 58.2929 57.981 58.1408 58.1331C57.9888 58.2851 57.7825 58.3706 57.5675 58.3706Z" fill="#333333"/>
<path d="M30.2183 58.3705H27.867C27.6519 58.3705 27.4457 58.2851 27.2936 58.1331C27.1416 57.981 27.0562 57.7748 27.0562 57.5597C27.0562 57.3447 27.1416 57.1384 27.2936 56.9864C27.4457 56.8343 27.6519 56.7489 27.867 56.7489H30.2183C30.4334 56.7489 30.6396 56.8343 30.7917 56.9864C30.9437 57.1384 31.0291 57.3447 31.0291 57.5597C31.0291 57.7748 30.9437 57.981 30.7917 58.1331C30.6396 58.2851 30.4334 58.3705 30.2183 58.3705Z" fill="#333333"/>
<path d="M22.1919 58.3706H2.43239C2.21735 58.3706 2.01112 58.2851 1.85906 58.1331C1.70701 57.981 1.62158 57.7748 1.62158 57.5598V23.5138C1.62158 23.2988 1.70701 23.0925 1.85906 22.9405C2.01112 22.7884 2.21735 22.703 2.43239 22.703C2.64743 22.703 2.85367 22.7884 3.00572 22.9405C3.15778 23.0925 3.2432 23.2988 3.2432 23.5138V56.7489H22.1919C22.4069 56.7489 22.6131 56.8344 22.7652 56.9864C22.9172 57.1385 23.0027 57.3447 23.0027 57.5598C23.0027 57.7748 22.9172 57.981 22.7652 58.1331C22.6131 58.2851 22.4069 58.3706 22.1919 58.3706Z" fill="#333333"/>
<path d="M38.3024 58.3705H35.8943C35.6793 58.3705 35.473 58.2851 35.321 58.1331C35.1689 57.981 35.0835 57.7748 35.0835 57.5597C35.0835 57.3447 35.1689 57.1384 35.321 56.9864C35.473 56.8343 35.6793 56.7489 35.8943 56.7489H38.3024C38.5175 56.7489 38.7237 56.8343 38.8758 56.9864C39.0278 57.1384 39.1132 57.3447 39.1132 57.5597C39.1132 57.7748 39.0278 57.981 38.8758 58.1331C38.7237 58.2851 38.5175 58.3705 38.3024 58.3705Z" fill="#333333"/>
<path d="M30 44.1317C27.5003 44.1352 25.0776 43.2667 23.1495 41.6757L1.91599 24.1387C1.8339 24.0709 1.76597 23.9876 1.71608 23.8935C1.66619 23.7994 1.63532 23.6964 1.62523 23.5904C1.61514 23.4844 1.62603 23.3775 1.65728 23.2757C1.68852 23.1739 1.73952 23.0792 1.80734 22.9971C1.94432 22.8313 2.14156 22.7267 2.35565 22.7063C2.46166 22.6963 2.56862 22.7071 2.67042 22.7384C2.77222 22.7696 2.86687 22.8206 2.94896 22.8885L24.1817 40.423C25.82 41.7726 27.8766 42.5106 29.9992 42.5106C32.1219 42.5106 34.1785 41.7726 35.8168 40.423L57.0503 22.8885C57.2161 22.7515 57.4295 22.686 57.6436 22.7063C57.8577 22.7267 58.055 22.8313 58.1919 22.9971C58.3289 23.1629 58.3944 23.3763 58.3741 23.5904C58.3537 23.8045 58.2491 24.0017 58.0833 24.1387L36.849 41.6757C34.9214 43.2666 32.4993 44.1351 30 44.1317Z" fill="#333333"/>
<path d="M2.43187 58.3703C2.26486 58.3705 2.10187 58.3192 1.96516 58.2232C1.82846 58.1273 1.72471 57.9915 1.66811 57.8343C1.6115 57.6772 1.6048 57.5064 1.64891 57.3454C1.69303 57.1843 1.78581 57.0408 1.91458 56.9344L22.5335 39.9155C22.6153 39.8451 22.7102 39.7917 22.8129 39.7585C22.9155 39.7253 23.0238 39.7129 23.1313 39.722C23.2388 39.7312 23.3434 39.7617 23.4389 39.8118C23.5345 39.8619 23.6191 39.9305 23.6878 40.0137C23.7564 40.0969 23.8078 40.193 23.8389 40.2963C23.87 40.3996 23.8802 40.5081 23.8688 40.6154C23.8574 40.7227 23.8247 40.8266 23.7727 40.9211C23.7206 41.0156 23.6503 41.0988 23.5657 41.1657L2.94836 58.1847C2.80302 58.3047 2.62039 58.3704 2.43187 58.3703Z" fill="#333333"/>
<path d="M57.5673 58.3703C57.379 58.3702 57.1967 58.3045 57.0516 58.1847L36.4326 41.1657C36.348 41.0988 36.2777 41.0156 36.2256 40.9211C36.1736 40.8266 36.1409 40.7227 36.1295 40.6154C36.1181 40.5081 36.1283 40.3996 36.1594 40.2963C36.1905 40.193 36.2419 40.0969 36.3105 40.0137C36.3792 39.9305 36.4638 39.8619 36.5594 39.8118C36.6549 39.7617 36.7595 39.7312 36.867 39.722C36.9745 39.7129 37.0828 39.7253 37.1854 39.7585C37.2881 39.7917 37.383 39.8451 37.4648 39.9155L58.0837 56.9344C58.2125 57.0407 58.3052 57.1842 58.3494 57.3452C58.3935 57.5062 58.3869 57.6769 58.3304 57.834C58.2739 57.991 58.1702 58.1269 58.0337 58.2229C57.8971 58.3189 57.7342 58.3704 57.5673 58.3703Z" fill="#333333"/>
<path d="M38.9268 10.0702C38.7489 10.07 38.5759 10.0114 38.4346 9.90318L30.0006 3.45318L21.5681 9.90318C21.4835 9.96787 21.387 10.0153 21.2841 10.0426C21.1812 10.07 21.0739 10.0769 20.9684 10.0628C20.8628 10.0487 20.7611 10.014 20.6689 9.96059C20.5768 9.90719 20.4961 9.83616 20.4314 9.75156C20.3667 9.66697 20.3193 9.57046 20.2919 9.46755C20.2645 9.36464 20.2577 9.25734 20.2718 9.15178C20.2858 9.04622 20.3206 8.94447 20.374 8.85234C20.4274 8.7602 20.4984 8.67949 20.583 8.61481L29.51 1.78859C29.6514 1.68062 29.8243 1.62213 30.0022 1.62213C30.1801 1.62213 30.353 1.68062 30.4944 1.78859L39.4214 8.61481C39.558 8.71724 39.6588 8.86018 39.7093 9.02325C39.7599 9.18632 39.7577 9.3612 39.7031 9.52295C39.6485 9.68471 39.5442 9.82509 39.4051 9.92409C39.266 10.0231 39.0991 10.0756 38.9284 10.0743L38.9268 10.0702Z" fill="#333333"/>
<path d="M57.5681 24.3244C57.3903 24.3246 57.2175 24.2659 57.0767 24.1574L48.1578 17.3385C48.004 17.2026 47.9074 17.0135 47.8876 16.8092C47.8677 16.605 47.9261 16.4008 48.0509 16.2378C48.1756 16.0749 48.3575 15.9653 48.5599 15.9312C48.7623 15.8972 48.9701 15.9411 49.1413 16.0541L58.0602 22.8739C58.1931 22.9773 58.2905 23.1196 58.3388 23.2809C58.3871 23.4423 58.384 23.6147 58.3299 23.7741C58.2758 23.9336 58.1734 24.0723 58.0369 24.1709C57.9003 24.2695 57.7365 24.3232 57.5681 24.3244Z" fill="#333333"/>
<path d="M48.6481 31.6863C48.4331 31.6863 48.2269 31.6009 48.0748 31.4488C47.9228 31.2968 47.8373 31.0906 47.8373 30.8755V10.0701H12.1617V30.8755C12.1617 31.0906 12.0762 31.2968 11.9242 31.4488C11.7721 31.6009 11.5659 31.6863 11.3508 31.6863C11.1358 31.6863 10.9296 31.6009 10.7775 31.4488C10.6255 31.2968 10.54 31.0906 10.54 30.8755V9.2593C10.54 9.04426 10.6255 8.83802 10.7775 8.68597C10.9296 8.53391 11.1358 8.44849 11.3508 8.44849H48.6481C48.8632 8.44849 49.0694 8.53391 49.2215 8.68597C49.3735 8.83802 49.459 9.04426 49.459 9.2593V30.8755C49.459 31.0906 49.3735 31.2968 49.2215 31.4488C49.0694 31.6009 48.8632 31.6863 48.6481 31.6863Z" fill="#333333"/>
<path d="M34.523 29.9961C33.3112 30.5107 32.0051 30.7656 30.6887 30.7445C28.598 30.8641 26.5383 30.1968 24.9149 28.8739C24.2081 28.2255 23.6532 27.4291 23.2896 26.5415C22.926 25.6539 22.7628 24.697 22.8117 23.739C22.7787 22.6906 22.9546 21.646 23.3292 20.6662C23.7038 19.6863 24.2696 18.7908 24.9936 18.0317C25.7034 17.2868 26.5621 16.6996 27.5139 16.3085C28.4656 15.9173 29.4891 15.7309 30.5176 15.7615C31.4016 15.7167 32.2858 15.8468 33.1195 16.1443C33.9532 16.4417 34.72 16.9007 35.376 17.495C35.9666 18.0508 36.4332 18.7249 36.7453 19.4734C37.0574 20.2219 37.2081 21.0278 37.1874 21.8385C37.2785 23.3261 36.8009 24.7927 35.8511 25.9412C35.4323 26.4147 34.9151 26.7911 34.3358 27.044C33.7564 27.2969 33.1288 27.4203 32.4968 27.4055C32.1078 27.4243 31.7266 27.2918 31.433 27.0358C31.1699 26.7983 31.0115 26.4663 30.9928 26.1123C30.7351 26.5117 30.3808 26.8396 29.9627 27.0656C29.5445 27.2917 29.0762 27.4086 28.6009 27.4055C28.2224 27.4161 27.8461 27.3455 27.4973 27.1983C27.1485 27.0512 26.8352 26.831 26.5787 26.5526C26.0181 25.9056 25.7317 25.0656 25.7801 24.2109C25.7629 22.8782 26.2124 21.5815 27.0506 20.5453C27.3562 20.0832 27.7653 19.6986 28.2453 19.4221C28.7254 19.1456 29.2632 18.9846 29.8163 18.952C30.2746 18.9126 30.7358 18.9822 31.1622 19.1549C31.5886 19.3277 31.9681 19.5988 32.2698 19.9461L32.449 19.175H33.8363L32.6363 24.4112C32.5224 24.8333 32.454 25.2663 32.4319 25.7028C32.4319 26.0769 32.5749 26.2639 32.8609 26.2639C33.3004 26.2579 33.7322 26.1478 34.121 25.9426C34.5097 25.7374 34.8442 25.4429 35.0971 25.0834C35.7714 24.1303 36.1019 22.9765 36.0344 21.8109C36.0525 21.141 35.924 20.4752 35.6579 19.86C35.3918 19.2449 34.9945 18.6954 34.4938 18.2499C33.3931 17.2882 31.965 16.786 30.5046 16.8472C29.623 16.8214 28.7463 16.9868 27.9345 17.3317C27.1228 17.6767 26.3953 18.1932 25.8019 18.8458C24.574 20.1764 23.9129 21.9331 23.959 23.7431C23.9123 24.5563 24.0463 25.3698 24.3515 26.125C24.6567 26.8803 25.1255 27.5585 25.7241 28.1109C27.1261 29.2227 28.8899 29.7763 30.6757 29.6653C31.7973 29.6965 32.9127 29.4892 33.9482 29.0572L34.523 29.9961ZM31.9982 21.0901C31.7713 20.7588 31.4614 20.4929 31.0994 20.319C30.7375 20.1451 30.3362 20.0693 29.9358 20.0993C29.5353 20.1293 29.1498 20.2639 28.8178 20.4897C28.4857 20.7156 28.2189 21.0247 28.0438 21.3861C27.5 22.2118 27.2112 23.1793 27.2136 24.168C27.2136 25.5653 27.7722 26.2639 28.8895 26.2639C29.1764 26.2565 29.459 26.1924 29.721 26.0754C29.983 25.9584 30.2193 25.7907 30.4163 25.582C30.9167 25.0769 31.258 24.4361 31.3982 23.739L31.9982 21.0901Z" fill="#333333"/>
<path d="M30.69 30.8451C28.5762 30.9606 26.4951 30.2851 24.8522 28.9502C24.1359 28.2912 23.5732 27.4829 23.2039 26.5824C22.8346 25.6819 22.6676 24.7112 22.7149 23.7391C22.6837 22.6779 22.8629 21.621 23.2421 20.6293C23.6213 19.6377 24.193 18.7309 24.9243 17.9613C25.6443 17.208 26.5141 16.6139 27.4777 16.2173C28.4413 15.8207 29.4773 15.6303 30.5189 15.6586C32.3302 15.5714 34.1022 16.2049 35.4478 17.4205C36.0471 17.9867 36.5208 18.6725 36.8381 19.4334C37.1554 20.1944 37.3094 21.0135 37.29 21.8378C37.3788 23.3501 36.8921 24.8401 35.9278 26.0086C35.4992 26.4927 34.9705 26.8778 34.3783 27.1372C33.7861 27.3966 33.1445 27.5242 32.4981 27.511C32.0826 27.5301 31.6758 27.3878 31.363 27.1137C31.1438 26.9166 30.9914 26.6562 30.9267 26.3686C30.6546 26.7273 30.3024 27.0174 29.8982 27.2157C29.4941 27.4141 29.0491 27.5152 28.5989 27.511C28.2066 27.521 27.8167 27.4471 27.4552 27.2942C27.0938 27.1414 26.7691 26.9132 26.503 26.6248C25.926 25.9585 25.6298 25.0944 25.6768 24.2142C25.6614 22.8586 26.1184 21.54 26.9692 20.4845C27.2852 20.0112 27.7065 19.6176 28.2001 19.3344C28.6938 19.0513 29.2463 18.8863 29.8143 18.8523C30.2535 18.8207 30.6944 18.882 31.1082 19.0323C31.522 19.1826 31.8995 19.4186 32.2159 19.7248L32.3676 19.0705H33.9632L32.734 24.4307C32.6226 24.8463 32.5555 25.2724 32.5338 25.7021C32.5338 26.1075 32.7089 26.1618 32.8581 26.1618C33.2823 26.1546 33.6987 26.0474 34.0737 25.8489C34.4486 25.6504 34.7713 25.3662 35.0157 25.0194C35.6744 24.0839 35.9978 22.9533 35.9335 21.811C35.9494 21.1552 35.8226 20.5038 35.562 19.9018C35.3013 19.2998 34.9129 18.7616 34.4238 18.3245C33.3404 17.3817 31.9377 16.8886 30.5027 16.9461C29.6353 16.9222 28.7729 17.0855 27.9743 17.4248C27.1757 17.7641 26.4595 18.2714 25.8746 18.9124C24.6672 20.2261 24.0165 21.9569 24.0592 23.7407C24.0145 24.5393 24.1464 25.3378 24.4455 26.0796C24.7445 26.8214 25.2034 27.4881 25.7895 28.0324C27.1744 29.1248 28.9131 29.6691 30.6738 29.5615C31.7807 29.5914 32.8815 29.3873 33.904 28.9624L33.9851 28.9259L34.6694 30.044L34.5632 30.0902C33.3387 30.6086 32.0195 30.8657 30.69 30.8451ZM30.5181 15.8613C29.5033 15.8333 28.4939 16.0182 27.5549 16.404C26.6159 16.7899 25.7681 17.3681 25.0662 18.1015C24.3531 18.8527 23.7957 19.7375 23.4263 20.7051C23.0568 21.6727 22.8825 22.7038 22.9135 23.7391C22.8668 24.6825 23.0279 25.6247 23.3855 26.4989C23.743 27.3732 24.2883 28.1583 24.9827 28.7986C26.59 30.101 28.6246 30.7582 30.69 30.6424C31.9523 30.6606 33.2055 30.4251 34.3751 29.9499L33.9057 29.1821C32.8788 29.5926 31.7793 29.7901 30.6738 29.7626C28.8634 29.8712 27.0765 29.3086 25.6549 28.1824C25.0468 27.6195 24.5704 26.9295 24.2596 26.1615C23.9488 25.3935 23.8111 24.5664 23.8565 23.7391C23.8126 21.9039 24.4829 20.1234 25.7262 18.7729C26.3301 18.1118 27.0693 17.5886 27.8935 17.2388C28.7178 16.8891 29.6077 16.7209 30.5027 16.7459C31.9869 16.6877 33.4372 17.1991 34.5567 18.1753C35.068 18.6305 35.4741 19.1914 35.7468 19.8192C36.0195 20.4471 36.1524 21.1267 36.1362 21.811C36.2039 23.0004 35.8667 24.1776 35.1794 25.1507C34.9162 25.5213 34.5692 25.8246 34.1667 26.0359C33.7642 26.2473 33.3175 26.3607 32.863 26.3669C32.6651 26.3669 32.3335 26.281 32.3335 25.7045C32.355 25.2596 32.4238 24.8182 32.5386 24.3878L33.7103 19.2796H32.5313L32.3221 20.1796L32.1916 20.0126C31.8986 19.6779 31.531 19.4168 31.1184 19.2503C30.7059 19.0838 30.26 19.0167 29.8167 19.0542C29.2793 19.0891 28.7571 19.2477 28.291 19.5176C27.8249 19.7875 27.4275 20.1614 27.1297 20.6102C26.3081 21.6297 25.8669 22.9033 25.8819 24.2126C25.8361 25.0406 26.1124 25.8541 26.653 26.4829C26.9004 26.7501 27.202 26.9615 27.5375 27.1031C27.873 27.2447 28.2348 27.3133 28.5989 27.3042C29.0579 27.3055 29.51 27.1916 29.9136 26.9729C30.3171 26.7542 30.6594 26.4376 30.9089 26.0524L31.0711 25.8237L31.0913 26.1042C31.0987 26.2667 31.1384 26.4261 31.208 26.5731C31.2776 26.7201 31.3758 26.8518 31.4967 26.9605C31.7716 27.1986 32.1276 27.3217 32.4908 27.3042C33.1088 27.3169 33.7221 27.195 34.2883 26.9471C34.8544 26.6991 35.3599 26.331 35.7697 25.8683C36.6996 24.7368 37.1676 23.2957 37.08 21.8337C37.0984 21.0366 36.9491 20.2446 36.6418 19.5089C36.3345 18.7732 35.8761 18.1103 35.2962 17.5632C33.9901 16.3881 32.2729 15.7765 30.5181 15.8613ZM28.89 26.3653C27.7111 26.3653 27.1127 25.6259 27.1127 24.168C27.1111 23.1597 27.4051 22.1731 27.9584 21.3302C28.1427 20.9546 28.4222 20.6338 28.7691 20.3999C29.116 20.166 29.5181 20.0271 29.9354 19.9971C30.3527 19.9671 30.7706 20.047 31.1474 20.2288C31.5242 20.4106 31.8468 20.6881 32.083 21.0334L32.1073 21.0699L31.4976 23.761C31.3518 24.4772 31.0004 25.1354 30.4865 25.6551C30.0695 26.0941 29.4953 26.3495 28.89 26.3653ZM29.9262 20.2032C29.5455 20.2382 29.1802 20.3707 28.8655 20.5878C28.5509 20.8049 28.2974 21.0994 28.1295 21.4429C27.5983 22.2529 27.3164 23.201 27.3186 24.1696C27.3186 25.5115 27.8335 26.1642 28.8932 26.1642C29.1676 26.1568 29.4378 26.0951 29.6883 25.9828C29.9388 25.8705 30.1646 25.7098 30.3527 25.5099C30.8351 25.0166 31.1634 24.3933 31.2973 23.7164L31.8876 21.1105C31.6655 20.804 31.3686 20.5596 31.0253 20.4005C30.6819 20.2414 30.3035 20.1729 29.9262 20.2015V20.2032Z" fill="#333333"/>
</g>
<defs>
<clipPath id="clip0">
<rect width="60" height="60" fill="white"/>
</clipPath>
</defs>
</svg>
