<svg width="18" height="18" viewBox="0 0 18 18" fill="none" xmlns="http://www.w3.org/2000/svg">
<g clip-path="url(#clip0)">
<path d="M0.929983 18C0.692879 18 0.455774 17.9099 0.275629 17.7284C-0.0860171 17.3667 -0.0860171 16.7804 0.275629 16.4187L16.4231 0.271235C16.7848 -0.0904116 17.3711 -0.0904116 17.7328 0.271235C18.0944 0.632881 18.0944 1.2192 17.7328 1.58107L1.58547 17.7284C1.40397 17.9087 1.16686 18 0.929983 18Z" fill="#3E80AF"/>
<path d="M17.0742 18C16.8371 18 16.6002 17.9099 16.4199 17.7284L0.271235 1.58107C-0.0904116 1.2192 -0.0904116 0.632881 0.271235 0.271235C0.632881 -0.0904116 1.2192 -0.0904116 1.58107 0.271235L17.7284 16.4187C18.09 16.7804 18.09 17.3667 17.7284 17.7284C17.5469 17.9087 17.31 18 17.0742 18Z" fill="#3E80AF"/>
</g>
<defs>
<clipPath id="clip0">
<rect width="18" height="18" fill="white"/>
</clipPath>
</defs>
</svg>
