<svg width="24" height="24" viewBox="0 0 24 24" fill="none" xmlns="http://www.w3.org/2000/svg">
<path d="M22.1511 15.0764C21.8209 15.0764 21.5533 15.3439 21.5533 15.6741V20.9812C21.5522 21.9712 20.7501 22.7735 19.7602 22.7744H2.98862C1.99864 22.7735 1.19662 21.9712 1.19545 20.9812V5.40513C1.19662 4.41538 1.99864 3.61312 2.98862 3.61195H8.29576C8.62591 3.61195 8.89348 3.34438 8.89348 3.01423C8.89348 2.68431 8.62591 2.4165 8.29576 2.4165H2.98862C1.33881 2.41837 0.00186789 3.75531 0 5.40513V20.9814C0.00186789 22.6313 1.33881 23.9682 2.98862 23.9701H19.7602C21.41 23.9682 22.7469 22.6313 22.7488 20.9814V15.6741C22.7488 15.3439 22.4812 15.0764 22.1511 15.0764Z" fill="#142819"/>
<path d="M22.5121 0.879637C21.4616 -0.170817 19.7586 -0.170817 18.7081 0.879637L8.04433 11.5434C7.97125 11.6165 7.91848 11.7071 7.89093 11.8066L6.48861 16.8692C6.43094 17.0768 6.48954 17.2991 6.64178 17.4515C6.79424 17.6038 7.01652 17.6624 7.22409 17.6049L12.2868 16.2024C12.3862 16.1748 12.4768 16.1221 12.5499 16.049L23.2135 5.38498C24.2623 4.33383 24.2623 2.63218 23.2135 1.58103L22.5121 0.879637ZM9.34671 11.9319L18.0742 3.20422L20.8889 6.0189L12.1612 14.7466L9.34671 11.9319ZM8.78448 13.0601L11.0332 15.3091L7.92268 16.1709L8.78448 13.0601ZM22.3682 4.53976L21.7343 5.17368L18.9194 2.35877L19.5536 1.72486C20.137 1.14138 21.0831 1.14138 21.6666 1.72486L22.3682 2.42625C22.9508 3.01043 22.9508 3.95582 22.3682 4.53976Z" fill="#142819"/>
</svg>
