<svg width="24" height="24" viewBox="0 0 24 24" fill="none" xmlns="http://www.w3.org/2000/svg">
<path d="M15.3106 8.69482C15.0001 8.69482 14.7485 8.94643 14.7485 9.25689V19.8798C14.7485 20.1901 15.0001 20.4419 15.3106 20.4419C15.621 20.4419 15.8727 20.1901 15.8727 19.8798V9.25689C15.8727 8.94643 15.621 8.69482 15.3106 8.69482Z" fill="#142819"/>
<path d="M8.67803 8.69482C8.36758 8.69482 8.11597 8.94643 8.11597 9.25689V19.8798C8.11597 20.1901 8.36758 20.4419 8.67803 20.4419C8.98848 20.4419 9.24009 20.1901 9.24009 19.8798V9.25689C9.24009 8.94643 8.98848 8.69482 8.67803 8.69482Z" fill="#142819"/>
<path d="M3.84439 7.14552V20.9935C3.84439 21.812 4.14452 22.5806 4.66881 23.1322C5.19069 23.6852 5.91698 23.9992 6.67708 24.0005H17.3114C18.0717 23.9992 18.798 23.6852 19.3197 23.1322C19.844 22.5806 20.1441 21.812 20.1441 20.9935V7.14552C21.1863 6.86888 21.8617 5.862 21.7223 4.79256C21.5826 3.72333 20.6717 2.92349 19.5932 2.92327H16.7155V2.2207C16.7188 1.62987 16.4852 1.06255 16.067 0.645174C15.6487 0.22802 15.0805 -0.00426806 14.4897 0.000562131H9.49879C8.90797 -0.00426806 8.33976 0.22802 7.92151 0.645174C7.50326 1.06255 7.26965 1.62987 7.27295 2.2207V2.92327H4.39525C3.3168 2.92349 2.40587 3.72333 2.26623 4.79256C2.12681 5.862 2.80216 6.86888 3.84439 7.14552ZM17.3114 22.8764H6.67708C5.71609 22.8764 4.9685 22.0508 4.9685 20.9935V7.19492H19.02V20.9935C19.02 22.0508 18.2724 22.8764 17.3114 22.8764ZM8.39707 2.2207C8.39333 1.92803 8.50838 1.64634 8.71608 1.43974C8.92356 1.23314 9.2059 1.11963 9.49879 1.12468H14.4897C14.7826 1.11963 15.0649 1.23314 15.2724 1.43974C15.4801 1.64612 15.5952 1.92803 15.5914 2.2207V2.92327H8.39707V2.2207ZM4.39525 4.04739H19.5932C20.152 4.04739 20.6049 4.50033 20.6049 5.05909C20.6049 5.61786 20.152 6.0708 19.5932 6.0708H4.39525C3.83648 6.0708 3.38354 5.61786 3.38354 5.05909C3.38354 4.50033 3.83648 4.04739 4.39525 4.04739Z" fill="#142819"/>
<path d="M11.9944 8.69482C11.684 8.69482 11.4324 8.94643 11.4324 9.25689V19.8798C11.4324 20.1901 11.684 20.4419 11.9944 20.4419C12.3049 20.4419 12.5565 20.1901 12.5565 19.8798V9.25689C12.5565 8.94643 12.3049 8.69482 11.9944 8.69482Z" fill="#142819"/>
</svg>
