<svg width="18" height="18" viewBox="0 0 18 18" fill="none" xmlns="http://www.w3.org/2000/svg">
<path d="M17.8856 8.64995C17.7248 8.42998 13.8934 3.26379 8.99991 3.26379C4.10647 3.26379 0.274852 8.42998 0.114223 8.64974C-0.0380743 8.85843 -0.0380743 9.14147 0.114223 9.35016C0.274852 9.57013 4.10647 14.7363 8.99991 14.7363C13.8934 14.7363 17.7248 9.5701 17.8856 9.35034C18.0381 9.14169 18.0381 8.85843 17.8856 8.64995ZM8.99991 13.5495C5.39537 13.5495 2.27345 10.1206 1.3493 8.99965C2.27226 7.87771 5.38764 4.4506 8.99991 4.4506C12.6043 4.4506 15.726 7.8789 16.6505 9.00046C15.7276 10.1224 12.6122 13.5495 8.99991 13.5495Z" fill="#666666"/>
<path d="M8.99941 5.43954C7.03622 5.43954 5.43896 7.0368 5.43896 9C5.43896 10.9632 7.03622 12.5605 8.99941 12.5605C10.9626 12.5605 12.5599 10.9632 12.5599 9C12.5599 7.0368 10.9626 5.43954 8.99941 5.43954ZM8.99941 11.3736C7.69055 11.3736 6.62581 10.3088 6.62581 9C6.62581 7.69117 7.69058 6.62639 8.99941 6.62639C10.3082 6.62639 11.373 7.69117 11.373 9C11.373 10.3088 10.3083 11.3736 8.99941 11.3736Z" fill="#666666"/>
</svg>
