<svg width="130" height="130" viewBox="0 0 130 130" fill="none" xmlns="http://www.w3.org/2000/svg">
<g clip-path="url(#clip0)">
<path d="M55.1086 0H4.23922C1.89795 0 0 1.89795 0 4.23922V55.1088C0 57.4498 1.89795 59.348 4.23922 59.348H55.1088C57.4498 59.348 59.348 57.4501 59.348 55.1088V4.23922C59.3478 1.89795 57.4498 0 55.1086 0ZM50.8696 50.8696H8.47818V8.47818H50.8696V50.8696Z" fill="black"/>
<path d="M38.1519 16.9566H21.1953C18.8543 16.9566 16.9561 18.8546 16.9561 21.1959V38.1525C16.9561 40.4935 18.854 42.3917 21.1953 42.3917H38.1519C40.4929 42.3917 42.3911 40.4937 42.3911 38.1525V21.1956C42.3911 18.8546 40.4929 16.9566 38.1519 16.9566ZM33.9127 33.913H25.4345V25.4348H33.9127V33.913Z" fill="black"/>
<path d="M125.761 0H74.8916C72.5506 0 70.6523 1.89795 70.6523 4.23922V55.1088C70.6523 57.4498 72.5503 59.348 74.8916 59.348H125.761C128.102 59.348 130 57.4501 130 55.1088V4.23922C130 1.89795 128.102 0 125.761 0ZM121.522 50.8696H79.1305V8.47818H121.522V50.8696Z" fill="black"/>
<path d="M108.805 16.9566H91.8481C89.5071 16.9566 87.6089 18.8546 87.6089 21.1959V38.1525C87.6089 40.4935 89.5068 42.3917 91.8481 42.3917H108.805C111.146 42.3917 113.044 40.4937 113.044 38.1525V21.1956C113.044 18.8546 111.146 16.9566 108.805 16.9566ZM104.566 33.913H96.0873V25.4348H104.566V33.913Z" fill="black"/>
<path d="M55.1086 70.6522H4.23922C1.89795 70.6522 0 72.5502 0 74.8914V125.761C0 128.102 1.89795 130 4.23922 130H55.1088C57.4498 130 59.348 128.102 59.348 125.761V74.8914C59.3478 72.5502 57.4498 70.6522 55.1086 70.6522ZM50.8696 121.522H8.47818V79.1304H50.8696V121.522Z" fill="black"/>
<path d="M38.1519 87.6086H21.1953C18.8543 87.6086 16.9561 89.5065 16.9561 91.8478V108.804C16.9561 111.145 18.854 113.044 21.1953 113.044H38.1519C40.4929 113.044 42.3911 111.146 42.3911 108.804V91.8478C42.3911 89.5068 40.4929 87.6086 38.1519 87.6086ZM33.9127 104.565H25.4345V96.087H33.9127V104.565Z" fill="black"/>
<path d="M79.1305 70.6522H70.6523V79.1304H79.1305V70.6522Z" fill="black"/>
<path d="M79.1305 87.6086H70.6523V96.0868H79.1305V87.6086Z" fill="black"/>
<path d="M79.1305 104.565H70.6523V113.043H79.1305V104.565Z" fill="black"/>
<path d="M87.6081 79.1304H79.1299V87.6086H87.6081V79.1304Z" fill="black"/>
<path d="M87.6081 96.087H79.1299V104.565H87.6081V96.087Z" fill="black"/>
<path d="M87.6081 113.043H79.1299V121.522H87.6081V113.043Z" fill="black"/>
<path d="M96.0871 70.6522H87.6089V79.1304H96.0871V70.6522Z" fill="black"/>
<path d="M96.0871 87.6086H87.6089V96.0868H96.0871V87.6086Z" fill="black"/>
<path d="M96.0871 104.565H87.6089V113.043H96.0871V104.565Z" fill="black"/>
<path d="M104.566 79.1304H96.0874V87.6086H104.566V79.1304Z" fill="black"/>
<path d="M104.566 96.087H96.0874V104.565H104.566V96.087Z" fill="black"/>
<path d="M104.566 113.043H96.0874V121.522H104.566V113.043Z" fill="black"/>
<path d="M113.044 70.6522H104.565V79.1304H113.044V70.6522Z" fill="black"/>
<path d="M113.044 87.6086H104.565V96.0868H113.044V87.6086Z" fill="black"/>
<path d="M113.044 104.565H104.565V113.043H113.044V104.565Z" fill="black"/>
<path d="M121.522 79.1304H113.043V87.6086H121.522V79.1304Z" fill="black"/>
<path d="M121.522 96.087H113.043V104.565H121.522V96.087Z" fill="black"/>
<path d="M121.522 113.043H113.043V121.522H121.522V113.043Z" fill="black"/>
<path d="M79.1305 121.522H70.6523V130H79.1305V121.522Z" fill="black"/>
<path d="M96.0871 121.522H87.6089V130H96.0871V121.522Z" fill="black"/>
<path d="M113.044 121.522H104.565V130H113.044V121.522Z" fill="black"/>
<path d="M130 70.6522H121.522V79.1304H130V70.6522Z" fill="black"/>
<path d="M130 87.6086H121.522V96.0868H130V87.6086Z" fill="black"/>
<path d="M130 104.565H121.522V113.043H130V104.565Z" fill="black"/>
<path d="M130 121.522H121.522V130H130V121.522Z" fill="black"/>
</g>
<defs>
<clipPath id="clip0">
<rect width="130" height="130" fill="white"/>
</clipPath>
</defs>
</svg>
