<svg width="110" height="45" viewBox="0 0 110 45" fill="none" xmlns="http://www.w3.org/2000/svg">
<path d="M1.19423 39V29.844H4.07823C4.58223 29.844 5.04889 29.8907 5.47823 29.984C5.91689 30.0773 6.29489 30.236 6.61223 30.46C6.92956 30.684 7.17689 30.978 7.35423 31.342C7.53156 31.6967 7.62023 32.14 7.62023 32.672C7.62023 33.176 7.53156 33.6147 7.35423 33.988C7.17689 34.3613 6.92956 34.674 6.61223 34.926C6.30423 35.1687 5.93556 35.3507 5.50623 35.472C5.08623 35.584 4.62889 35.64 4.13423 35.64H2.81823V39H1.19423ZM2.81823 34.338H4.00823C5.35223 34.338 6.02423 33.7827 6.02423 32.672C6.02423 32.0933 5.84689 31.6967 5.49223 31.482C5.14689 31.258 4.63356 31.146 3.95223 31.146H2.81823V34.338ZM9.20266 39V32.126H10.5327L10.6447 33.344H10.7007C10.9433 32.896 11.2373 32.5553 11.5827 32.322C11.928 32.0793 12.2827 31.958 12.6467 31.958C12.9733 31.958 13.2347 32.0047 13.4307 32.098L13.1507 33.498C13.0293 33.4607 12.9173 33.4327 12.8147 33.414C12.712 33.3953 12.586 33.386 12.4367 33.386C12.166 33.386 11.8813 33.4933 11.5827 33.708C11.284 33.9133 11.0273 34.2773 10.8127 34.8V39H9.20266ZM17.1026 39.168C16.6733 39.168 16.2626 39.0887 15.8706 38.93C15.4786 38.7713 15.1286 38.538 14.8206 38.23C14.5219 37.922 14.2839 37.544 14.1066 37.096C13.9293 36.648 13.8406 36.1393 13.8406 35.57C13.8406 35.0007 13.9293 34.492 14.1066 34.044C14.2839 33.596 14.5219 33.218 14.8206 32.91C15.1286 32.602 15.4786 32.3687 15.8706 32.21C16.2626 32.042 16.6733 31.958 17.1026 31.958C17.5319 31.958 17.9426 32.042 18.3346 32.21C18.7359 32.3687 19.0859 32.602 19.3846 32.91C19.6833 33.218 19.9213 33.596 20.0986 34.044C20.2853 34.492 20.3786 35.0007 20.3786 35.57C20.3786 36.1393 20.2853 36.648 20.0986 37.096C19.9213 37.544 19.6833 37.922 19.3846 38.23C19.0859 38.538 18.7359 38.7713 18.3346 38.93C17.9426 39.0887 17.5319 39.168 17.1026 39.168ZM17.1026 37.852C17.6066 37.852 18.0033 37.6467 18.2926 37.236C18.5819 36.816 18.7266 36.2607 18.7266 35.57C18.7266 34.87 18.5819 34.3147 18.2926 33.904C18.0033 33.484 17.6066 33.274 17.1026 33.274C16.5986 33.274 16.2019 33.484 15.9126 33.904C15.6326 34.3147 15.4926 34.87 15.4926 35.57C15.4926 36.2607 15.6326 36.816 15.9126 37.236C16.2019 37.6467 16.5986 37.852 17.1026 37.852ZM20.8317 39L23.0157 35.416L20.9717 32.126H22.7077L23.4777 33.428C23.5804 33.6147 23.6831 33.8107 23.7857 34.016C23.8977 34.212 24.0051 34.4033 24.1077 34.59H24.1637C24.2477 34.4033 24.3364 34.212 24.4297 34.016C24.5231 33.8107 24.6117 33.6147 24.6957 33.428L25.3537 32.126H27.0197L24.9897 35.598L27.1737 39H25.4377L24.5977 37.642C24.4857 37.4367 24.3691 37.2313 24.2477 37.026C24.1357 36.8207 24.0191 36.62 23.8977 36.424H23.8417C23.7391 36.62 23.6364 36.8207 23.5337 37.026C23.4404 37.222 23.3424 37.4273 23.2397 37.642L22.5117 39H20.8317ZM28.7506 41.828C28.5639 41.828 28.4006 41.814 28.2606 41.786C28.1206 41.7673 27.9853 41.7347 27.8546 41.688L28.1486 40.428C28.2139 40.4467 28.2886 40.4653 28.3726 40.484C28.4659 40.512 28.5546 40.526 28.6386 40.526C29.0026 40.526 29.2919 40.414 29.5066 40.19C29.7306 39.9753 29.8986 39.6953 30.0106 39.35L30.1366 38.916L27.4346 32.126H29.0726L30.2626 35.5C30.3653 35.7987 30.4633 36.116 30.5566 36.452C30.6593 36.7787 30.7619 37.1053 30.8646 37.432H30.9206C31.0046 37.1147 31.0886 36.7927 31.1726 36.466C31.2659 36.13 31.3546 35.808 31.4386 35.5L32.4746 32.126H34.0286L31.5366 39.308C31.3966 39.7 31.2426 40.05 31.0746 40.358C30.9066 40.666 30.7106 40.9273 30.4866 41.142C30.2719 41.366 30.0199 41.534 29.7306 41.646C29.4506 41.7673 29.1239 41.828 28.7506 41.828ZM39.073 39L37.253 29.844H38.919L39.717 34.464C39.7916 34.9587 39.8663 35.4487 39.941 35.934C40.0156 36.4193 40.0903 36.9047 40.165 37.39H40.221C40.3236 36.9047 40.4216 36.4193 40.515 35.934C40.6176 35.4393 40.7203 34.9493 40.823 34.464L41.943 29.844H43.357L44.477 34.464C44.5796 34.94 44.6823 35.4253 44.785 35.92C44.8876 36.4053 44.9903 36.8953 45.093 37.39H45.149C45.2236 36.8953 45.2936 36.4053 45.359 35.92C45.4336 35.4347 45.5083 34.9493 45.583 34.464L46.381 29.844H47.935L46.185 39H44.169L43.035 34.184C42.9603 33.8293 42.8856 33.4793 42.811 33.134C42.7456 32.7793 42.685 32.4247 42.629 32.07H42.573C42.5076 32.4247 42.4376 32.7793 42.363 33.134C42.2976 33.4793 42.2276 33.8293 42.153 34.184L41.047 39H39.073ZM52.1602 39.168C51.6842 39.168 51.2409 39.0887 50.8302 38.93C50.4196 38.762 50.0602 38.524 49.7522 38.216C49.4442 37.908 49.2016 37.5347 49.0242 37.096C48.8562 36.648 48.7722 36.1393 48.7722 35.57C48.7722 35.01 48.8609 34.506 49.0382 34.058C49.2156 33.61 49.4489 33.232 49.7382 32.924C50.0369 32.616 50.3776 32.378 50.7602 32.21C51.1429 32.042 51.5349 31.958 51.9362 31.958C52.4029 31.958 52.8136 32.0373 53.1682 32.196C53.5229 32.3547 53.8169 32.5787 54.0502 32.868C54.2929 33.1573 54.4749 33.5027 54.5962 33.904C54.7176 34.3053 54.7782 34.744 54.7782 35.22C54.7782 35.3787 54.7689 35.528 54.7502 35.668C54.7409 35.808 54.7269 35.92 54.7082 36.004H50.3402C50.4149 36.62 50.6296 37.096 50.9842 37.432C51.3482 37.7587 51.8102 37.922 52.3702 37.922C52.6689 37.922 52.9442 37.88 53.1962 37.796C53.4576 37.7027 53.7142 37.5767 53.9662 37.418L54.5122 38.426C54.1856 38.6407 53.8216 38.818 53.4202 38.958C53.0189 39.098 52.5989 39.168 52.1602 39.168ZM50.3262 34.912H53.3782C53.3782 34.38 53.2616 33.9647 53.0282 33.666C52.8042 33.358 52.4542 33.204 51.9782 33.204C51.5676 33.204 51.2082 33.3487 50.9002 33.638C50.5922 33.9273 50.4009 34.352 50.3262 34.912ZM59.6479 39.168C59.3306 39.168 59.0086 39.0933 58.6819 38.944C58.3646 38.7853 58.0613 38.5613 57.7719 38.272H57.7299L57.5899 39H56.3159V29.116H57.9259V31.664L57.8839 32.812C58.1733 32.56 58.4859 32.3547 58.8219 32.196C59.1673 32.0373 59.5173 31.958 59.8719 31.958C60.3013 31.958 60.6839 32.042 61.0199 32.21C61.3559 32.3687 61.6406 32.602 61.8739 32.91C62.1073 33.2087 62.2846 33.5727 62.4059 34.002C62.5273 34.4313 62.5879 34.912 62.5879 35.444C62.5879 36.032 62.5039 36.5593 62.3359 37.026C62.1773 37.4833 61.9626 37.8707 61.6919 38.188C61.4213 38.5053 61.1086 38.748 60.7539 38.916C60.3993 39.084 60.0306 39.168 59.6479 39.168ZM59.3119 37.838C59.7693 37.838 60.1519 37.642 60.4599 37.25C60.7679 36.8487 60.9219 36.256 60.9219 35.472C60.9219 34.7813 60.8053 34.2447 60.5719 33.862C60.3386 33.4793 59.9606 33.288 59.4379 33.288C58.9526 33.288 58.4486 33.5447 57.9259 34.058V37.264C58.1686 37.4787 58.4066 37.628 58.6399 37.712C58.8826 37.796 59.1066 37.838 59.3119 37.838ZM69.8214 39.168C69.2054 39.168 68.608 39.0513 68.0294 38.818C67.46 38.5847 66.956 38.2533 66.5174 37.824L67.4694 36.718C67.796 37.026 68.1694 37.278 68.5894 37.474C69.0094 37.6607 69.4294 37.754 69.8494 37.754C70.372 37.754 70.7687 37.6467 71.0394 37.432C71.31 37.2173 71.4454 36.9327 71.4454 36.578C71.4454 36.3913 71.408 36.2327 71.3334 36.102C71.268 35.9713 71.17 35.8593 71.0394 35.766C70.918 35.6633 70.7687 35.57 70.5914 35.486C70.4234 35.402 70.2367 35.318 70.0314 35.234L68.7714 34.688C68.5474 34.5947 68.3234 34.478 68.0994 34.338C67.8847 34.198 67.6887 34.03 67.5114 33.834C67.334 33.638 67.1894 33.4093 67.0774 33.148C66.9747 32.8867 66.9234 32.588 66.9234 32.252C66.9234 31.888 66.998 31.552 67.1474 31.244C67.306 30.9267 67.5207 30.6513 67.7914 30.418C68.062 30.1847 68.384 30.0027 68.7574 29.872C69.14 29.7413 69.5554 29.676 70.0034 29.676C70.5354 29.676 71.0487 29.7833 71.5434 29.998C72.038 30.2033 72.4627 30.4833 72.8174 30.838L71.9914 31.874C71.6927 31.6313 71.3847 31.44 71.0674 31.3C70.75 31.16 70.3954 31.09 70.0034 31.09C69.5647 31.09 69.2147 31.188 68.9534 31.384C68.692 31.5707 68.5614 31.832 68.5614 32.168C68.5614 32.3453 68.5987 32.4993 68.6734 32.63C68.7574 32.7513 68.8647 32.8633 68.9954 32.966C69.1354 33.0593 69.294 33.148 69.4714 33.232C69.6487 33.3067 69.8307 33.3813 70.0174 33.456L71.2634 33.974C71.534 34.086 71.7814 34.2167 72.0054 34.366C72.2294 34.5153 72.4207 34.688 72.5794 34.884C72.7474 35.08 72.878 35.3087 72.9714 35.57C73.0647 35.822 73.1114 36.116 73.1114 36.452C73.1114 36.8253 73.0367 37.1753 72.8874 37.502C72.738 37.8287 72.5187 38.118 72.2294 38.37C71.9494 38.6127 71.604 38.8087 71.1934 38.958C70.792 39.098 70.3347 39.168 69.8214 39.168ZM77.5763 39.168C77.1003 39.168 76.6569 39.0887 76.2463 38.93C75.8356 38.762 75.4763 38.524 75.1683 38.216C74.8603 37.908 74.6176 37.5347 74.4403 37.096C74.2723 36.648 74.1883 36.1393 74.1883 35.57C74.1883 35.01 74.2769 34.506 74.4543 34.058C74.6316 33.61 74.8649 33.232 75.1543 32.924C75.4529 32.616 75.7936 32.378 76.1763 32.21C76.5589 32.042 76.9509 31.958 77.3523 31.958C77.8189 31.958 78.2296 32.0373 78.5843 32.196C78.9389 32.3547 79.2329 32.5787 79.4663 32.868C79.7089 33.1573 79.8909 33.5027 80.0123 33.904C80.1336 34.3053 80.1943 34.744 80.1943 35.22C80.1943 35.3787 80.1849 35.528 80.1663 35.668C80.1569 35.808 80.1429 35.92 80.1243 36.004H75.7563C75.8309 36.62 76.0456 37.096 76.4003 37.432C76.7643 37.7587 77.2263 37.922 77.7863 37.922C78.0849 37.922 78.3603 37.88 78.6123 37.796C78.8736 37.7027 79.1303 37.5767 79.3823 37.418L79.9283 38.426C79.6016 38.6407 79.2376 38.818 78.8363 38.958C78.4349 39.098 78.0149 39.168 77.5763 39.168ZM75.7423 34.912H78.7943C78.7943 34.38 78.6776 33.9647 78.4443 33.666C78.2203 33.358 77.8703 33.204 77.3943 33.204C76.9836 33.204 76.6243 33.3487 76.3163 33.638C76.0083 33.9273 75.8169 34.352 75.7423 34.912ZM81.732 39V32.126H83.062L83.174 33.344H83.23C83.4726 32.896 83.7666 32.5553 84.112 32.322C84.4573 32.0793 84.812 31.958 85.176 31.958C85.5026 31.958 85.764 32.0047 85.96 32.098L85.68 33.498C85.5586 33.4607 85.4466 33.4327 85.344 33.414C85.2413 33.3953 85.1153 33.386 84.966 33.386C84.6953 33.386 84.4106 33.4933 84.112 33.708C83.8133 33.9133 83.5566 34.2773 83.342 34.8V39H81.732ZM88.7134 39L86.3194 32.126H87.9574L89.0494 35.696C89.1427 36.032 89.236 36.3727 89.3294 36.718C89.432 37.0633 89.53 37.4133 89.6234 37.768H89.6794C89.782 37.4133 89.88 37.0633 89.9734 36.718C90.0667 36.3727 90.1647 36.032 90.2674 35.696L91.3594 32.126H92.9134L90.5754 39H88.7134ZM94.105 39V32.126H95.715V39H94.105ZM94.917 30.922C94.6277 30.922 94.3897 30.838 94.203 30.67C94.0163 30.502 93.923 30.2827 93.923 30.012C93.923 29.7413 94.0163 29.522 94.203 29.354C94.3897 29.1767 94.6277 29.088 94.917 29.088C95.2063 29.088 95.4443 29.1767 95.631 29.354C95.8177 29.522 95.911 29.7413 95.911 30.012C95.911 30.2827 95.8177 30.502 95.631 30.67C95.4443 30.838 95.2063 30.922 94.917 30.922ZM100.639 39.168C100.172 39.168 99.7337 39.0887 99.3231 38.93C98.9217 38.7713 98.5717 38.538 98.2731 38.23C97.9744 37.922 97.7411 37.544 97.5731 37.096C97.4051 36.648 97.3211 36.1393 97.3211 35.57C97.3211 35.0007 97.4144 34.492 97.6011 34.044C97.7877 33.596 98.0397 33.218 98.3571 32.91C98.6744 32.602 99.0384 32.3687 99.4491 32.21C99.8691 32.042 100.308 31.958 100.765 31.958C101.213 31.958 101.596 32.0327 101.913 32.182C102.24 32.3313 102.529 32.5133 102.781 32.728L101.997 33.778C101.81 33.6193 101.624 33.498 101.437 33.414C101.26 33.3207 101.064 33.274 100.849 33.274C100.289 33.274 99.8364 33.484 99.4911 33.904C99.1457 34.3147 98.9731 34.87 98.9731 35.57C98.9731 36.2607 99.1411 36.816 99.4771 37.236C99.8224 37.6467 100.266 37.852 100.807 37.852C101.078 37.852 101.33 37.796 101.563 37.684C101.806 37.5627 102.025 37.4227 102.221 37.264L102.879 38.328C102.552 38.608 102.193 38.818 101.801 38.958C101.418 39.098 101.031 39.168 100.639 39.168ZM106.834 39.168C106.358 39.168 105.915 39.0887 105.504 38.93C105.093 38.762 104.734 38.524 104.426 38.216C104.118 37.908 103.875 37.5347 103.698 37.096C103.53 36.648 103.446 36.1393 103.446 35.57C103.446 35.01 103.535 34.506 103.712 34.058C103.889 33.61 104.123 33.232 104.412 32.924C104.711 32.616 105.051 32.378 105.434 32.21C105.817 32.042 106.209 31.958 106.61 31.958C107.077 31.958 107.487 32.0373 107.842 32.196C108.197 32.3547 108.491 32.5787 108.724 32.868C108.967 33.1573 109.149 33.5027 109.27 33.904C109.391 34.3053 109.452 34.744 109.452 35.22C109.452 35.3787 109.443 35.528 109.424 35.668C109.415 35.808 109.401 35.92 109.382 36.004H105.014C105.089 36.62 105.303 37.096 105.658 37.432C106.022 37.7587 106.484 37.922 107.044 37.922C107.343 37.922 107.618 37.88 107.87 37.796C108.131 37.7027 108.388 37.5767 108.64 37.418L109.186 38.426C108.859 38.6407 108.495 38.818 108.094 38.958C107.693 39.098 107.273 39.168 106.834 39.168ZM105 34.912H108.052C108.052 34.38 107.935 33.9647 107.702 33.666C107.478 33.358 107.128 33.204 106.652 33.204C106.241 33.204 105.882 33.3487 105.574 33.638C105.266 33.9273 105.075 34.352 105 34.912Z" fill="#9D9D9D"/>
<path d="M10.759 4.603H5V1.635H20.021V4.602H14.295V21.435H10.759V4.603Z" fill="#9D9D9D"/>
<path d="M19.709 6.57H22.603L22.848 9.203H22.971C24.035 7.267 25.62 6.208 27.208 6.208C27.968 6.208 28.455 6.298 28.913 6.509L28.303 9.537C27.785 9.385 27.389 9.295 26.749 9.295C25.561 9.295 24.129 10.112 23.215 12.354V21.436H19.711V6.57H19.709Z" fill="#9D9D9D"/>
<path fill-rule="evenodd" clip-rule="evenodd" d="M35.768 9.023C37.779 9.023 38.449 10.356 38.481 11.93C32.355 12.595 29.673 14.26 29.673 17.44C29.673 20.042 31.501 21.8 34.123 21.8C35.89 21.8 37.414 20.922 38.754 19.802H38.848L39.12 21.436H41.985V12.624C41.985 8.478 40.157 6.207 36.407 6.207C34.03 6.207 31.928 7.114 30.282 8.144L31.563 10.475C32.873 9.688 34.276 9.023 35.768 9.023ZM38.482 17.439C37.384 18.47 36.439 19.075 35.219 19.075C33.97 19.075 33.085 18.499 33.086 17.168C33.086 15.683 34.426 14.625 38.482 14.109V17.439Z" fill="#9D9D9D"/>
<path d="M42.988 6.57H46.554L48.93 14.291C49.326 15.744 49.784 17.258 50.179 18.771H50.302C50.73 17.256 51.155 15.744 51.582 14.291L53.958 6.57H57.342L52.253 21.436H48.199L42.988 6.57Z" fill="#9D9D9D"/>
<path fill-rule="evenodd" clip-rule="evenodd" d="M60.817 0C59.569 0 58.655 0.817 58.655 1.999C58.655 3.148 59.569 3.966 60.817 3.967C62.067 3.967 62.981 3.149 62.981 1.999C62.981 0.817 62.067 0 60.817 0ZM62.556 6.57H59.051V21.436H62.556V6.57Z" fill="#9D9D9D"/>
<path d="M66.21 17.501C67.551 18.527 68.83 19.165 70.354 19.165C71.971 19.165 72.731 18.408 72.731 17.38C72.731 16.137 71.118 15.591 69.53 14.986C67.551 14.258 65.328 13.138 65.328 10.659C65.328 8.052 67.43 6.207 70.782 6.207C72.853 6.207 74.532 7.055 75.749 7.993L74.135 10.112C73.099 9.356 72.033 8.841 70.844 8.841C69.349 8.841 68.65 9.537 68.65 10.475C68.65 11.626 70.143 12.111 71.756 12.685C73.8 13.443 76.054 14.413 76.054 17.198C76.054 19.74 74.012 21.801 70.235 21.801C68.194 21.801 66.028 20.923 64.567 19.74L66.21 17.501Z" fill="#9D9D9D"/>
<path d="M93.242 1.272C95.678 1.272 97.66 2.452 98.909 3.784L96.959 5.965C95.923 4.965 94.797 4.33 93.271 4.33C90.008 4.33 87.664 7.056 87.664 11.506C87.664 16.018 89.828 18.74 93.147 18.74C94.917 18.74 96.224 18.015 97.354 16.775L99.303 18.923C97.689 20.769 95.618 21.799 93.087 21.799C88.027 21.799 84.037 18.163 84.037 11.595C84.038 5.117 88.121 1.272 93.242 1.272Z" fill="#9D9D9D"/>
<path d="M101.467 1.635H105V21.436H101.467V1.635Z" fill="#9D9D9D"/>
</svg>
